<?xml version="1.0" encoding="utf-8"?>
<!-- Generator: Adobe Illustrator 22.0.1, SVG Export Plug-In . SVG Version: 6.00 Build 0)  -->
<svg version="1.2" baseProfile="tiny" id="圖層_1"
	 xmlns="http://www.w3.org/2000/svg" xmlns:xlink="http://www.w3.org/1999/xlink" x="0px" y="0px" viewBox="0 0 512 512"
	 xml:space="preserve">
<image display="none" width="512" height="512" xlink:href="launcher_icon-web.png" >
</image>
<path fill="#FFFFFF" d="M362,128h-53v22h38.1l-61.2,61.1c-8.6-5.7-18.9-9.1-29.9-9.1c-11.1,0-21.4,3.3-29.9,9.1l-29.5-29.4
	l24.5-24.5l-15.6-15.6L181,166.1l-13.6-13.5L192,128h-64v64l24.5-24.5l13.6,13.5l-24.5,24.5l15.6,15.6l24.5-24.5l29.5,29.4
	c-5.8,8.6-9.1,18.9-9.1,30c0,26.1,18.5,47.8,43,52.9V341h-43v22h43v43h22v-43h43v-22h-43v-32.1c24.5-5.1,43-26.8,43-52.9
	c0-11.1-3.4-21.4-9.1-30l61.1-61v38h22v-53v-22H362z M256,288c-17.7,0-32-14.3-32-32c0-17.7,14.3-32,32-32s32,14.3,32,32
	C288,273.7,273.7,288,256,288z"/>
</svg>
